<?xml version="1.0" standalone="no"?>
<!DOCTYPE svg PUBLIC "-//W3C//DTD SVG 20010904//EN"
 "http://www.w3.org/TR/2001/REC-SVG-20010904/DTD/svg10.dtd">
<svg version="1.0" xmlns="http://www.w3.org/2000/svg"
 width="920.000000pt" height="920.000000pt" viewBox="0 0 920.000000 920.000000"
 preserveAspectRatio="xMidYMid meet">

<g transform="translate(0.000000,920.000000) scale(0.100000,-0.100000)"
fill="#000000" stroke="none">
<path d="M2665 8640 c-319 -7 -347 -9 -460 -34 -338 -77 -655 -233 -916 -454
-321 -270 -561 -656 -664 -1064 -45 -182 -54 -282 -65 -733 -10 -374 -6 -2729
5 -3530 6 -432 13 -514 56 -675 141 -532 462 -973 912 -1252 187 -117 491
-241 692 -283 121 -25 422 -32 1357 -31 654 1 840 4 849 13 9 9 15 69 20 180
7 161 9 7300 2 7666 l-4 178 -27 11 c-32 14 -1229 19 -1757 8z m1125 -4028 l0
-3391 -142 4 c-79 3 -359 7 -623 10 -264 2 -526 9 -582 15 -140 15 -283 59
-438 135 -382 188 -652 528 -751 943 -24 103 -31 560 -32 2242 -1 1747 6 2235
37 2353 138 527 579 947 1097 1043 92 17 349 25 1097 33 l337 3 0 -3390z"/>
<path d="M2426 6975 c-40 -8 -118 -38 -185 -71 -101 -50 -125 -66 -201 -143
-151 -152 -212 -305 -212 -536 -1 -156 15 -225 75 -338 80 -151 189 -259 337
-336 116 -61 170 -72 333 -74 122 0 152 3 212 22 136 44 222 97 326 201 83 82
103 108 143 190 62 127 79 201 79 330 0 129 -19 213 -78 335 -51 106 -121 195
-208 265 -72 58 -195 122 -282 145 -85 23 -254 28 -339 10z"/>
<path d="M5379 8643 l-97 -4 -6 -40 c-9 -55 -9 -7676 0 -7856 4 -78 10 -146
14 -152 8 -15 1268 -15 1452 -1 707 54 1365 507 1678 1155 63 131 128 302 154
405 32 130 38 260 45 890 9 894 3 3619 -9 3775 -20 282 -141 624 -317 895
-279 430 -726 750 -1221 875 -218 55 -247 57 -947 59 -357 2 -693 1 -746 -1z
m1686 -3647 c202 -54 395 -205 500 -391 63 -112 87 -204 93 -351 5 -155 -7
-239 -50 -343 -81 -194 -237 -358 -422 -441 -415 -188 -928 29 -1090 461 -66
177 -57 438 23 613 106 234 315 401 576 461 77 18 288 13 370 -9z"/>
</g>
</svg>
