<?xml version="1.0" standalone="no"?>
<!DOCTYPE svg PUBLIC "-//W3C//DTD SVG 20010904//EN"
 "http://www.w3.org/TR/2001/REC-SVG-20010904/DTD/svg10.dtd">
<svg version="1.0" xmlns="http://www.w3.org/2000/svg"
 width="232.000000pt" height="217.000000pt" viewBox="0 0 232.000000 217.000000"
 preserveAspectRatio="xMidYMid meet">

<g transform="translate(0.000000,217.000000) scale(0.100000,-0.100000)"
fill="#000000" stroke="none">
<path d="M765 2164 c-112 -18 -305 -80 -305 -97 0 -3 -47 -180 -105 -393 -57
-213 -103 -389 -102 -390 1 -1 41 8 90 21 127 34 263 49 386 42 129 -8 200
-26 304 -78 43 -22 80 -39 81 -37 1 2 51 180 111 397 l109 394 -25 20 c-36 30
-155 82 -229 101 -65 17 -259 29 -315 20z"/>
<path d="M1443 1896 c-6 -22 -54 -200 -108 -394 -53 -194 -95 -359 -92 -366 7
-18 131 -81 212 -106 51 -16 105 -24 201 -27 147 -6 241 8 372 55 l75 28 28
99 c14 55 61 228 103 385 43 157 79 293 82 302 5 16 2 16 -37 3 -167 -59 -442
-76 -594 -36 -44 12 -114 39 -156 60 l-76 38 -10 -41z"/>
<path d="M515 1244 c-63 -11 -186 -44 -242 -66 l-58 -23 -106 -395 c-59 -217
-105 -397 -103 -399 1 -1 24 4 51 13 113 37 198 49 353 50 177 1 260 -16 382
-81 38 -20 70 -34 72 -32 2 2 52 179 111 393 77 279 105 394 98 405 -16 26
-163 95 -243 115 -74 17 -257 29 -315 20z"/>
<path d="M1190 986 c0 -2 -49 -180 -109 -397 -87 -312 -107 -397 -98 -408 22
-26 191 -99 271 -116 61 -14 109 -16 215 -13 122 5 147 9 247 42 62 20 116 42
122 49 11 14 216 777 210 783 -3 2 -47 -7 -99 -20 -264 -67 -515 -49 -696 50
-35 18 -63 32 -63 30z"/>
</g>
</svg>
