<?xml version="1.0" standalone="no"?>
<!DOCTYPE svg PUBLIC "-//W3C//DTD SVG 20010904//EN"
 "http://www.w3.org/TR/2001/REC-SVG-20010904/DTD/svg10.dtd">
<svg version="1.0" xmlns="http://www.w3.org/2000/svg"
 width="920.000000pt" height="392.000000pt" viewBox="0 0 920.000000 392.000000"
 preserveAspectRatio="xMidYMid meet">

<g transform="translate(0.000000,392.000000) scale(0.100000,-0.100000)"
fill="#000000" stroke="none">
<path d="M4519 3355 c-3 -2 -52 -11 -110 -19 -161 -23 -334 -79 -469 -151
l-45 -24 41 -1 c112 -1 336 -92 562 -228 l102 -62 98 58 c212 129 382 202 525
226 l72 13 -73 37 c-97 49 -255 101 -367 121 -49 8 -115 20 -146 25 -57 10
-182 14 -190 5z"/>
<path d="M3613 2937 c-178 -183 -269 -333 -341 -559 -126 -393 -70 -827 149
-1169 l54 -84 6 85 c16 223 132 506 332 805 110 165 202 281 426 538 l34 38
-54 56 c-155 158 -366 318 -484 367 l-33 14 -89 -91z"/>
<path d="M5415 2988 c-44 -24 -105 -61 -135 -82 -72 -52 -231 -190 -299 -259
l-54 -55 102 -117 c432 -494 662 -918 689 -1265 l7 -85 54 84 c295 461 285
1069 -24 1530 -28 41 -97 123 -155 183 l-105 108 -80 -42z"/>
<path d="M4529 2244 c-35 -31 -138 -129 -228 -218 -332 -327 -579 -644 -722
-928 l-31 -61 69 -69 c187 -190 434 -323 699 -376 250 -51 279 -52 481 -17
326 56 580 183 785 392 l67 68 -24 68 c-42 122 -156 290 -345 513 -105 122
-660 684 -677 684 -6 0 -39 -25 -74 -56z"/>
</g>
</svg>
